<svg xmlns="http://www.w3.org/2000/svg" xmlns:xlink="http://www.w3.org/1999/xlink" viewBox="0 0 406.16 406.16"><defs><style>.cls-1{fill:url(#Безымянный_градиент_13);}.cls-2{fill:url(#Безымянный_градиент_13-2);}.cls-3{fill:url(#Безымянный_градиент_13-3);}.cls-4{fill:none;stroke-miterlimit:10;stroke-width:7.52px;stroke:url(#Безымянный_градиент_8);}</style><linearGradient id="Безымянный_градиент_13" x1="66.78" y1="257.87" x2="339.15" y2="257.87" gradientUnits="userSpaceOnUse"><stop offset="0" stop-color="#f44837"/><stop offset="1" stop-color="#f63"/></linearGradient><linearGradient id="Безымянный_градиент_13-2" x1="102.05" y1="136.73" x2="324.62" y2="136.73" xlink:href="#Безымянный_градиент_13"/><linearGradient id="Безымянный_градиент_13-3" x1="29.27" y1="203.08" x2="376.88" y2="203.08" xlink:href="#Безымянный_градиент_13"/><linearGradient id="Безымянный_градиент_8" x1="0" y1="203.08" x2="406.16" y2="203.08" xlink:href="#Безымянный_градиент_13"/></defs><g id="Слой_2" data-name="Слой 2"><g id="Слой_1-2" data-name="Слой 1"><path class="cls-1" d="M339.15,210.58a139.73,139.73,0,0,1-4.93,30.48v0c-.53,1.93-1.09,3.85-1.72,5.75a129.84,129.84,0,0,1-18.72,36.27c-1.47,2-3,3.89-4.52,5.79a150.66,150.66,0,0,1-25.71,24.67,85.29,85.29,0,0,1-10.9,8.64c-19.78,13.5-44.12,20.35-72.32,20.35A139.76,139.76,0,0,1,172,339.78a6.76,6.76,0,0,1-.83-.17c-.66-.13-1.29-.3-2-.46-.33-.07-.66-.17-1-.24a129.41,129.41,0,0,1-21.44-7.35.83.83,0,0,1-.23-.1,111.28,111.28,0,0,1-30.63-20.87,142.72,142.72,0,0,1-15.42-17.49Q66.8,255.09,66.78,203a144.5,144.5,0,0,1,3-29.79,74.83,74.83,0,0,0,18.75,24.9c-.06,1.63-.1,3.26-.1,4.89q0,36.76,19.49,65.17c1.06,1.53,2.16,3.06,3.29,4.55a124.74,124.74,0,0,0,11.3,12.94,117.45,117.45,0,0,0,9.88,8.94,106.72,106.72,0,0,0,45.48,22,.82.82,0,0,0,.3.07,116.82,116.82,0,0,0,24.9,2.56q47.24,0,80.59-33.61a114.71,114.71,0,0,0,14.4-17.46c1-1.4,1.86-2.83,2.76-4.25a109.1,109.1,0,0,0,6.52-12.51c.66-1.46,1.29-2.92,1.86-4.42a114.1,114.1,0,0,0,5.09-15.92h-34a73,73,0,0,0-11.47-6.92c-7.74-3.72-19.12-7.28-34.34-10.71a21.36,21.36,0,0,1-1-2.85Z"/><path class="cls-2" d="M125.13,122.4a24.21,24.21,0,0,0-1.43,8.28q0,20.94,25.3,31.55,15.47,6.2,56.19,12.87c12,1.93,23,4,32.91,6.08,1.33.3,2.66.57,3.93.87q28.53,6.28,45,13.53c2.5,1.1,4.79,2.19,6.85,3.33l1.1.59a83.82,83.82,0,0,1,11.67,7.75H257.12Q235.84,201,201.5,195.38q-49.73-8.08-68.36-17.06Q111.6,167.81,105,149a40.82,40.82,0,0,1-1.33-4.56,57.11,57.11,0,0,1-1.6-13.76q0-18.15,13.74-32.88A80.28,80.28,0,0,1,129.68,86q29-19.8,70.69-19.82a6.78,6.78,0,0,1,.9,0c.59,0,1.19,0,1.79,0q39.41,0,70.69,20.05,16.46,10.68,37.33,31.89,6.54,6.67,13.54,14.36A30.19,30.19,0,0,1,305.53,135a28.58,28.58,0,0,1-17-9.41c-.4-.47-.84-.93-1.23-1.4-1.27-1.36-2.53-2.73-3.83-4a111.74,111.74,0,0,0-33.61-23.41,113.38,113.38,0,0,0-46.75-9.9c-.4,0-.8,0-1.2,0s-1,0-1.49,0q-34.81,0-58,15.89a54.89,54.89,0,0,0-11.3,9.67l-.07.07A31.27,31.27,0,0,0,125.13,122.4Z"/><path class="cls-3" d="M376.88,203q0,70.92-50.4,121.32A184.83,184.83,0,0,1,308.66,340q-45.5,35.37-105.6,35.35a181.72,181.72,0,0,1-41.73-4.69c-.69-.17-1.39-.3-2.09-.47A165.2,165.2,0,0,1,92.41,336c-4.35-3.62-8.61-7.51-12.73-11.67-1.86-1.86-3.66-3.72-5.39-5.62q-45-48.72-45-115.7,0-65,42.43-112.84,3.78-4.29,8-8.48,4-4,8.21-7.68,47-41.74,110.68-43.16c1,0,2.06,0,3.09,0h1.4c.47,0,.93,0,1.4,0,1.66,0,3.29.1,4.95.2l-.1-.1a173,173,0,0,1,65.6,15.3,174.69,174.69,0,0,1,36,21.67,172.12,172.12,0,0,1,22.91,21.58,27.57,27.57,0,0,1,6.91,16.36,27.12,27.12,0,0,1-4.62,16.82c-5.32-5.91-10.47-11.43-15.46-16.49q-1.25-1.29-2.49-2.49Q298.76,84.3,282.49,73.83a139.79,139.79,0,0,0-36.24-16.56,150.45,150.45,0,0,0-41.79-6c-.47,0-.93,0-1.4,0h-1.79l-2.13,0q-45.73.26-78.43,22.55a97.82,97.82,0,0,0-16.86,14.09l-.13.14a66.18,66.18,0,0,0-11.08,15.49,58.08,58.08,0,0,0-6.28,22c-.13,1.67-.2,3.36-.2,5.09,0,.43,0,.86,0,1.3.17,12.63,2.86,23.6,8.18,33a41,41,0,0,0,2.33,3.82q8.73,13,24.7,21.31,21.15,11.07,77.57,20.05,18.75,3,33.12,6.18l4.29,1q20.44,4.78,30.95,9.84a73,73,0,0,1,7,3.93,47.48,47.48,0,0,1,4.76,3.32,46.69,46.69,0,0,1,18.19,28.76,110.77,110.77,0,0,1-16,20.12,114.29,114.29,0,0,1-13.93,12c6.29-6.35,9.41-13.17,9.41-20.48,0-13.93-8.44-24.47-25.3-31.52Q236,237,195.28,230.36,129.89,219.79,105.51,206a85.49,85.49,0,0,1-13.6-9.31c-1.09-.93-2.16-1.86-3.19-2.85a72.66,72.66,0,0,1-17.72-26c-.7-1.76-1.33-3.56-1.93-5.38a92.81,92.81,0,0,1-3.66-16.89c-.29-2.23-.49-4.49-.63-6.82-1,2.06-1.89,4.12-2.79,6.22v0A150.24,150.24,0,0,0,50.88,203q0,43.74,21.68,78.57c.63,1,1.27,2.06,2,3.06A162.84,162.84,0,0,0,95.34,310a153.51,153.51,0,0,0,39.33,28.89s0,0,.07,0a126.27,126.27,0,0,0,37.17,12.76c.26.07.53.1.8.17a161.06,161.06,0,0,0,30.35,2.79q63.09,0,107.76-44.65a157.27,157.27,0,0,0,25.1-32.35c1.16-2,2.29-4.06,3.33-6.12q16-31,16-68.59c0-4.92-2.7-7.38-8.05-7.38H294.73c-11.11-5.88-27.33-11.2-49.08-16.16A30.69,30.69,0,0,1,262,174.87h85.18a28.84,28.84,0,0,1,20.95,8.31A26.31,26.31,0,0,1,376.88,203Z"/><circle class="cls-4" cx="203.08" cy="203.08" r="199.32"/></g></g></svg>